<?xml version="1.0" encoding="UTF-8" standalone="no"?>
<!-- Created with Inkscape (http://www.inkscape.org/) -->

<svg
   xmlns:dc="http://purl.org/dc/elements/1.1/"
   xmlns:cc="http://creativecommons.org/ns#"
   xmlns:rdf="http://www.w3.org/1999/02/22-rdf-syntax-ns#"
   xmlns:svg="http://www.w3.org/2000/svg"
   xmlns="http://www.w3.org/2000/svg"
   xmlns:sodipodi="http://sodipodi.sourceforge.net/DTD/sodipodi-0.dtd"
   xmlns:inkscape="http://www.inkscape.org/namespaces/inkscape"
   version="1.1"
   id="svg885"
   width="1106.8536"
   height="515.73499"
   viewBox="0 0 1106.8536 515.73497"
   sodipodi:docname="logo2.svg"
   inkscape:version="0.92.4 5da689c313, 2019-01-14">
  <metadata
     id="metadata891">
    <rdf:RDF>
      <cc:Work
         rdf:about="">
        <dc:format>image/svg+xml</dc:format>
        <dc:type
           rdf:resource="http://purl.org/dc/dcmitype/StillImage" />
        <dc:title />
      </cc:Work>
    </rdf:RDF>
  </metadata>
  <defs
     id="defs889" />
  <sodipodi:namedview
     pagecolor="#ffffff"
     bordercolor="#666666"
     borderopacity="1"
     objecttolerance="10"
     gridtolerance="10"
     guidetolerance="10"
     inkscape:pageopacity="0"
     inkscape:pageshadow="2"
     inkscape:window-width="1920"
     inkscape:window-height="1080"
     id="namedview887"
     showgrid="false"
     inkscape:zoom="0.82382253"
     inkscape:cx="247.23999"
     inkscape:cy="375.37675"
     inkscape:window-x="0"
     inkscape:window-y="0"
     inkscape:window-maximized="0"
     inkscape:current-layer="svg885" />
  <path
     style="fill:#000000;fill-opacity:1;stroke:none;stroke-width:0.34968415"
     d="m 188.66413,452.65201 c -0.25414,-0.2629 -1.64226,-1.9444 -3.08471,-3.7367 -6.01425,-7.4731 -12.43698,-14.2972 -17.16855,-18.2416 -7.6376,-6.3666 -13.77312,-9.1198 -34.06018,-15.2836 -8.44612,-2.5662 -23.01562,-7.3718 -27.79988,-9.1694 -28.182577,-10.5897 -44.698547,-26.215 -52.775337,-49.929 -1.17838,-3.4599 -3.27411,-11.9073 -3.69304,-14.8858 -0.13525,-0.9616 -0.40782,-1.945 -0.60568,-2.1855 -0.2767,-0.3362 -3.5346,-0.4371 -14.10885,-0.4371 -7.56199,0 -13.8317,-0.1338 -13.93269,-0.2972 -0.21204,-0.343 0.38862,-7.7714 2.26084,-27.9596 0.4157,-4.4826 0.68174,-8.2242 0.59119,-8.3147 -0.0906,-0.091 -1.64208,-0.2455 -3.44785,-0.3444 -5.72281,-0.3133 -9.46972,-1.8057 -12.0233701,-4.7891 -1.57203,-1.8365 -1.92085,-3.1542 -1.92325,-7.2647 -0.003,-5.2278 1.47914,-9.5519 5.1159201,-14.9253 2.28906,-3.382 3.76148,-4.8068 6.98686,-6.7608 1.56096,-0.9456 3.03243,-1.9534 3.26995,-2.2396 0.46929,-0.5654 0.36746,-2.1282 -0.5591,-8.581 -0.58014,-4.0402 -0.45845,-6.0107 0.63455,-10.2757 0.81134,-3.166 0.74817,-4.4121 -0.63352,-12.4961 -0.48062,-2.812 -0.82448,-5.7805 -0.76413,-6.5966 l 0.10973,-1.4839 7.51821,-0.068 c 11.63105,-0.1052 13.343,-0.7816 18.20986,-7.1954 4.31759,-5.6898 6.51949,-7.3658 13.50349,-10.2785 3.1959,-1.3329 8.55212,-2.6364 12.52169,-3.0473 1.92326,-0.1991 8.13711,-0.3114 13.80856,-0.2496 l 10.31173,0.1126 1.28986,-1.9232 c 0.70942,-1.0578 1.65071,-2.9826 2.091747,-4.2772 l 0.80189,-2.3538 -2.087787,-1.8329 c -2.72951,-2.3963 -5.90863,-5.5933 -9.76399,-9.8192 -3.59849,-3.9444 -6.05163,-6.071 -6.49126,-5.6273 -0.17193,0.1736 -0.16982,1.369 0.005,2.7544 0.16977,1.3464 0.4814,4.1001 0.6925,6.1195 0.21111,2.0195 0.59785,5.4813 0.85941,7.6931 0.29009,2.4528 0.35084,4.1744 0.15579,4.4136 -0.17589,0.2158 -0.8287,0.4804 -1.45068,0.5882 -9.17789,1.5898 -11.82723,2.1311 -14.94339,3.0528 -11.52152,3.408 -11.78685,3.4672 -12.07498,2.6981 -0.0901,-0.2403 -0.4704,-2.0893 -0.84517,-4.1087 -0.64319,-3.4658 -1.317,-6.99 -3.37635,-17.6591 -0.92786,-4.807 -1.03668,-5.3847 -3.29388,-17.4842 -1.52472,-8.1731 -2.74687,-15.1817 -3.84159,-22.0301 -0.36892,-2.308 -0.83474,-5.219 -1.03515,-6.4692 -0.32956,-2.0557 -0.80031,-5.3943 -1.75036,-12.4137 -0.33912,-2.5056 -1.0799,-8.9723 -1.88267,-16.4351 -0.24826,-2.308 -0.39238,-4.3697 -0.32026,-4.5817 0.0721,-0.2119 1.02803,-0.5837 2.12424,-0.8262 8.10303,-1.792 14.96447,-6.572196 19.38507,-13.504796 2.4707,-3.8748 3.74048,-7.2808 4.65806,-12.4945 1.14042,-6.4802 0.41262,-11.3395 -2.63412,-17.5875 -1.15859,-2.3759 -2.10653,-4.4694 -2.10653,-4.652 0,-0.4727 5.04445,-2.8964 9.96599,-4.7885 13.25375,-5.0952 37.871557,-12.6373 58.047577,-17.7838 6.38172,-1.6279 15.98499,-3.6839 17.20664,-3.6839 0.36763,0 0.92634,-0.1967 1.24158,-0.4371 0.52933,-0.4037 0.52128,-0.651 -0.10528,-3.2346 -1.07597,-4.4367 -1.68952,-4.0213 5.94105,-4.0213 7.54666,0 14.29991,-0.4692 18.37747,-1.2769 4.78737,-0.9482 10.39026,-4.0812 15.74536,-8.8045 0.58225,-0.5135 2.23451,-1.9716 3.67169,-3.2400997 3.78919,-3.3445 3.77847,-3.3411 5.92399,-1.8973 0.98828,0.6651 2.62606,1.9177 3.63951,2.7834997 9.43046,8.0567 22.67273,12.4019 37.8759,12.4284 2.15231,0 3.99595,0.1406 4.09697,0.304 0.10103,0.1635 0.0213,1.7528 -0.17747,3.5319 -0.19861,1.7791 -0.29319,3.3026 -0.21013,3.3856 0.083,0.083 3.90945,0.8497 8.5031,1.7035 9.86896,1.8345 14.76534,2.8296 22.33946,4.5399 6.74389,1.5228 19.59046,4.6419 20.80622,5.0515 0.48081,0.1621 1.89704,0.5687 3.14717,0.9038 2.2751,0.6096 10.13145,2.9731 12.76345,3.8397 7.04643,2.32 14.63425,5.7612 16.75211,7.5972 l 1.36605,1.1842 -2.00959,6.2751 c -1.10534,3.4513 -2.08423,6.5112 -2.17542,6.7997 -0.6223,1.9689 -1.16949,6.3057 -1.16915,9.2666 0,4.0622 0.62422,7.9709 1.8868,11.8237 1.98497,6.0572 4.09372,9.0533 10.91004,15.500896 l 5.12357,4.8464 -0.20991,6.9936 c -0.20468,6.8197 -0.66378,11.9226 -1.80893,20.1069 -1.011,7.2256 -1.20064,8.5249 -1.73519,11.8892 -2.16679,13.6372 -3.77722,26.655 -3.60966,29.1777 l 0.10813,1.6273 3.14717,1.2576 c 6.3642,2.5431 12.86108,6.2459 18.53323,10.5626 5.49061,4.1786 12.25697,11.8808 14.73872,16.7772 0.92579,1.8265 1.00512,2.3056 1.10959,6.698 0.0913,3.8386 -0.0168,5.2234 -0.57279,7.3434 -0.72044,2.7464 -2.35817,7.2415 -3.81845,10.4804 -2.37306,5.2636 -4.59136,11.278 -4.9963,13.5463 -0.55208,3.0925 -0.32004,5.6343 2.41872,26.4926 1.3118,9.9903 1.52402,13.1666 1.35522,20.2817 -0.1353,5.7025 -0.30545,7.51 -0.92177,9.7911 -1.63253,6.0424 -4.01881,9.2832 -8.43871,11.4605 -2.18853,1.0782 -2.43532,1.1199 -6.64401,1.1228 -4.33608,0 -4.39233,-0.01 -7.03079,-1.296 -3.09205,-1.5104 -5.58148,-3.8042 -6.66721,-6.1434 -1.06461,-2.2937 -1.2029,-7.6496 -0.49939,-19.3419 0.61769,-10.266 0.69949,-15.2879 0.2602,-15.9804 -0.34758,-0.5481 -6.7345,-3.2327 -7.12152,-2.9935 -0.1496,0.092 -0.27021,3.1879 -0.268,6.8788 0.003,5.903 0.53071,14.8699 1.74116,29.6151 2.7952,34.0511 1.68451,49.8472 -4.59333,65.3261 -0.90585,2.2334 -1.43631,3.2999 -3.23984,6.5139 -2.58628,4.6086 -8.20422,10.9747 -12.96981,14.697 -9.85537,7.6979 -19.95376,11.5968 -39.86398,15.3915 -17.07504,3.2542 -22.87819,4.5949 -29.60056,6.8384 -8.00504,2.6714 -14.02087,5.4782 -20.7054,9.6602 -7.24136,4.5304 -9.54852,6.5305 -15.65348,13.569 -1.4527,1.675 -6.93768,7.9292 -8.13536,9.2763 -0.59844,0.6731 -2.01192,2.2861 -3.14107,3.5843 -1.12914,1.2982 -2.17989,2.3604 -2.33499,2.3604 -0.1551,0 -0.48994,-0.2152 -0.74408,-0.478 z m -1.91634,-57.657 c 0.34828,-14.4969 0.28812,-45.6442 -0.0886,-45.8771 -0.39525,-0.2442 -3.4048,2.8644 -4.47389,4.6212 -1.02278,1.6808 -3.45853,4.1736 -5.0829,5.202 -3.19616,2.0235 -8.50252,3.1664 -17.39961,3.7476 l -6.11947,0.3997 0.087,3.3031 c 0.0479,1.8166 0.21926,3.4353 0.38088,3.597 0.16161,0.1615 0.99721,0.1056 1.85689,-0.1243 3.08114,-0.8241 4.69968,0.4828 3.66493,2.9593 -0.70384,1.6845 -1.26928,1.8512 -3.12964,0.922 -1.28358,-0.641 -1.67045,-0.6994 -2.32238,-0.3505 -0.6198,0.3317 -0.73566,0.6119 -0.55795,1.3493 0.12335,0.5118 0.31017,1.6388 0.41515,2.5042 0.17497,1.4426 0.0937,1.6662 -0.97622,2.6848 l -1.16709,1.1112 -1.39808,-0.6859 c -2.36678,-1.1612 -2.43264,-1.3099 -1.76278,-3.981 0.32315,-1.2885 0.50123,-2.5676 0.39572,-2.8426 -0.22681,-0.591 -1.37218,-0.3832 -3.61991,0.6567 -1.79087,0.8286 -2.33645,0.5354 -2.90034,-1.5586 -0.73361,-2.7246 1.48237,-3.9366 4.7222,-2.5828 0.65129,0.2721 1.27566,0.4032 1.38751,0.2914 0.11185,-0.1119 0.20336,-1.517 0.20336,-3.1226 0,-2.9181 -2.5e-4,-2.9194 -1.13647,-3.6124 -2.19475,-1.3386 -5.53259,-2.231 -7.9971,-2.1382 -1.84666,0.07 -2.35782,-0.025 -2.52786,-0.4683 -0.34022,-0.8865 0.79154,-3.7571 1.96734,-4.9897 0.59346,-0.6222 0.97153,-1.2387 0.84014,-1.3702 -0.4462,-0.4462 -1.89408,0.6433 -2.65556,1.9981 -0.90788,1.6154 -2.33023,2.8109 -3.02634,2.5438 -0.81285,-0.3119 -1.65959,-2.4479 -1.39856,-3.5281 0.12762,-0.5281 0.32156,-1.3142 0.43094,-1.747 0.32385,-1.281 -0.37033,-0.901 -1.43718,0.7868 -0.54706,0.8655 -1.20787,1.5736 -1.46847,1.5736 -0.66039,0 -0.61837,-2.665 0.0847,-5.3696 0.67208,-2.5856 0.49563,-4.6896 -0.51194,-6.1046 -1.0163,-1.4273 -1.00696,-3.6414 0.0193,-4.5976 0.9116,-0.8493 2.93302,-0.9366 5.00356,-0.2161 0.7688,0.2675 1.49252,0.4279 1.60825,0.3564 0.11574,-0.072 0.30539,-1.355 0.42145,-2.8521 0.21404,-2.761 0.89086,-5.203 1.8462,-6.661 0.51438,-0.7851 0.54979,-0.7896 1.55491,-0.1958 0.62285,0.3679 1.52093,1.5446 2.27687,2.9832 0.68657,1.3065 1.41241,2.3755 1.61296,2.3755 0.82598,0 6.17147,-3.0537 7.53514,-4.3047 1.66974,-1.5316 2.90229,-3.8097 2.90229,-5.3642 0,-1.3396 -1.06223,-4.5856 -2.57774,-7.877 -2.38999,-5.1907 -2.65803,-5.8374 -3.09212,-7.4604 -0.24363,-0.911 -0.65115,-1.736 -0.90561,-1.8337 -0.25447,-0.098 -1.27879,0.093 -2.27628,0.423 -2.06452,0.6835 -5.01255,1.6065 -11.7796,3.6875 -2.59641,0.7985 -5.94026,1.8333 -7.43079,2.2995 -7.7361,2.4198 -23.06775,7.1753 -24.915,7.7279 -0.96163,0.2878 -1.956087,0.723 -2.209917,0.9671 -0.3227,0.3105 -0.52291,2.0418 -0.66567,5.7563 -0.2306,6 0.022,5.523 -3.53832,6.6816 -2.39617,0.7798 -5.21162,1.272 -9.05961,1.5839 -1.79931,0.1458 -2.88479,0.3846 -2.88461,0.6345 0.001,2.3133 2.37376,10.4512 4.36576,14.9775 5.59544,12.7141 13.413377,19.7021 28.679107,25.6344 1.34628,0.5231 2.84119,1.1071 3.322,1.2975 4.69432,1.8593 13.91955,4.395 23.25399,6.3916 9.17918,1.9636 10.77263,2.3226 11.71442,2.6403 0.48082,0.1621 1.42497,0.4042 2.0981,0.538 1.6717,0.3324 8.75828,2.6805 11.53958,3.8237 3.77329,1.5508 8.77412,4.3017 11.31705,6.2253 4.42141,3.3446 5.54051,4.0885 6.15054,4.0885 0.55495,0 0.6258,-0.8082 0.83531,-9.5289 z m -11.60828,-14.9847 c -1.8139,-1.036 -2.13964,-1.582 -1.3907,-2.3309 0.2246,-0.2245 0.45208,-1.2789 0.50554,-2.3428 l 0.0972,-1.9345 h -1.56556 c -1.06904,0 -1.62941,0.1662 -1.76685,0.5244 -0.11308,0.2948 -0.63345,0.5246 -1.18754,0.5246 -1.13851,0 -2.43575,-1.3968 -2.43575,-2.6226 0,-0.9273 1.15877,-2.4994 2.0509,-2.7826 0.6787,-0.2154 3.00247,0.6156 3.36592,1.2037 0.12066,0.1952 0.44615,0.355 0.72328,0.355 0.3932,0 0.50389,-0.5668 0.50389,-2.5799 0,-5.088 2.11631,-7.3855 4.09649,-4.4472 0.65089,0.966 0.79909,1.6588 0.79909,3.7362 0,1.4026 0.13595,2.6342 0.30212,2.7369 0.16617,0.1027 0.95333,-0.1279 1.74925,-0.5124 1.34568,-0.6501 1.52151,-0.6607 2.50854,-0.1503 0.58378,0.3019 1.31222,1.0748 1.61876,1.7176 0.52126,1.0931 0.51474,1.2274 -0.10062,2.0736 -0.88085,1.2112 -1.63731,1.4138 -3.00928,0.8056 -1.91191,-0.8476 -2.27682,-0.9023 -2.91278,-0.4373 -0.52387,0.3831 -0.55376,0.6123 -0.20884,1.6017 0.56293,1.6148 0.502,2.9185 -0.19297,4.1294 -1.01917,1.7758 -1.53563,1.8823 -3.55009,0.7318 z m -52.42118,-0.48 c -1.37229,-0.6058 -1.72243,-1.3517 -1.1429,-2.4346 0.24266,-0.4534 0.35144,-1.394 0.24907,-2.1537 -0.28025,-2.0797 -2.50186,-3.5365 -2.74817,-1.8023 -0.0943,0.6641 -0.31526,0.7808 -1.41669,0.7476 -1.79311,-0.054 -2.36673,-0.632 -2.36673,-2.3845 0,-2.2609 0.5458,-2.7533 2.81922,-2.5436 1.04584,0.097 2.3423,0.29 2.88105,0.4301 l 0.97953,0.2546 -0.22737,-1.7141 c -0.2651,-1.9984 0.24057,-4.1921 1.26719,-5.4972 0.97057,-1.2339 1.50333,-1.1603 2.66568,0.3678 0.89986,1.1831 0.97672,1.5241 0.94612,4.1963 -0.0364,3.1791 0.15586,3.4133 1.95657,2.384 1.07399,-0.614 2.13501,-0.6522 3.30555,-0.1188 1.34516,0.6129 1.26244,2.7731 -0.16066,4.1962 l -1.05133,1.0513 -1.07361,-0.9034 c -1.8474,-1.5545 -3.11805,-1.0297 -3.11805,1.2877 0,0.7435 0.1535,1.6386 0.34111,1.9892 0.25596,0.4782 0.144,0.9308 -0.44839,1.8128 -0.90543,1.348 -1.95283,1.587 -3.65719,0.8346 z m -13.4987,-26.3352 c -0.0935,-0.1512 -0.88953,-0.6343 -1.76906,-1.0736 -1.76235,-0.8801 -1.83178,-1.0077 -1.08573,-1.994 0.32664,-0.4319 0.51745,-1.512 0.52453,-2.9693 0.0167,-3.4336 -0.77468,-3.8751 -3.66296,-2.0433 l -1.71292,1.0862 -1.50271,-1.5904 c -3.258127,-3.4484 -1.062167,-6.1216 3.87682,-4.7194 0.79162,0.2248 1.5888,0.5394 1.77151,0.6994 0.1827,0.1599 0.54929,0.2907 0.81462,0.2907 0.38479,0 0.43394,-0.4527 0.24288,-2.2367 -0.31916,-2.9804 0.0233,-4.7444 1.29354,-6.662 1.21568,-1.8354 1.91487,-1.9771 3.10854,-0.6302 1.60782,1.8142 1.78615,2.437 1.68576,5.8865 -0.0524,1.8003 10e-4,3.3703 0.12034,3.4889 0.11859,0.1187 0.81514,-0.1918 1.54788,-0.6896 1.45184,-0.9866 2.55305,-1.1182 4.28986,-0.5127 2.41438,0.8417 2.40418,4.9793 -0.0155,6.2742 -0.58734,0.3144 -1.02919,0.1555 -2.62555,-0.944 -2.21821,-1.5277 -2.89653,-1.3921 -3.42348,0.6849 -0.23907,0.9422 -0.16487,1.8332 0.28833,3.4625 0.58176,2.0915 0.58151,2.2102 -0.005,2.5435 -0.33852,0.1924 -0.95838,0.7038 -1.37749,1.1365 -0.74874,0.7731 -2.04991,1.0525 -2.38403,0.5119 z m 109.23808,38.8008 c 1.43805,-0.5437 3.83417,-1.4251 5.3247,-1.9587 1.49053,-0.5337 2.71005,-1.0801 2.71005,-1.2143 0,-0.616 -6.78115,-7.9627 -19.07221,-20.663 -2.70049,-2.7905 -6.24104,-6.4651 -7.86788,-8.1658 -3.28606,-3.4353 -8.1869,-7.6477 -8.51544,-7.3191 -0.11674,0.1167 -0.21224,4.6439 -0.21224,10.0607 v 9.8484 l 1.48614,1.0806 c 1.4912,1.0842 3.82392,3.1124 9.35406,8.1324 10.7706,9.7773 12.44036,11.1819 13.29598,11.1845 0.4852,0 2.05878,-0.4421 3.49684,-0.9857 z m 33.73816,-11.9073 c 7.16959,-2.2941 13.11152,-5.025 13.11152,-6.0259 0,-0.3442 -0.19669,-0.7518 -0.43708,-0.9055 -0.24042,-0.1539 -1.30258,-1.2294 -2.36036,-2.3901 -4.54354,-4.9858 -5.35754,-6.5018 -3.76283,-7.008 0.43069,-0.1366 3.38115,-1.4279 6.55658,-2.8693 3.17543,-1.4415 6.40292,-2.6902 7.17224,-2.775 1.51216,-0.1667 1.07405,-0.4016 10.85185,5.8192 l 4.08044,2.5959 1.5683,-0.8476 c 5.0771,-2.7438 8.1052,-8.156 9.57174,-17.1079 0.2048,-1.2501 0.50707,-6.5215 0.67169,-11.7143 0.16459,-5.1928 0.45775,-9.9503 0.65146,-10.5721 0.44965,-1.4434 2.7813,-6.2 4.58819,-9.36 8.45782,-14.7913 9.3987,-21.7675 3.43415,-25.4632 -1.33817,-0.8292 -5.42287,-0.7741 -8.24702,0.1113 -2.26797,0.711 -8.61912,3.7641 -10.26511,4.9346 -0.5105,0.3631 -1.02505,0.6602 -1.14341,0.6602 -0.11839,0 -0.85619,0.4046 -1.63957,0.8991 -2.45182,1.5478 -2.4944,1.4332 -2.38156,-6.4096 0.0949,-6.5971 -0.23433,-17.5661 -0.57724,-19.2297 -0.19245,-0.9335 -1.12031,-1.0257 -2.60366,-0.2586 -1.93848,1.0024 -1.91721,0.8046 -1.90472,17.7368 0.008,10.9628 0.12743,15.7584 0.39893,16.0299 0.28337,0.2833 0.93741,0.082 2.43624,-0.7505 1.12689,-0.6259 2.59963,-1.4442 3.27275,-1.8184 0.67316,-0.3742 2.56145,-1.501 4.19622,-2.504 6.95917,-4.2697 11.23358,-6.1596 14.07833,-6.2244 1.47011,-0.033 1.84875,0.1116 2.81451,1.0776 1.04813,1.0486 1.1128,1.2592 1.06512,3.4696 -0.0855,3.9628 -3.38056,11.593 -8.42462,19.5082 -0.23795,0.3734 -0.69175,1.1446 -1.00844,1.7137 -0.31668,0.5692 -1.76229,2.6149 -3.21248,4.5459 -1.45018,1.9311 -4.91806,6.6583 -7.70642,10.5048 -6.34047,8.7467 -8.36446,11.2377 -11.71377,14.4166 -8.36664,7.9414 -17.38335,12.1692 -29.60274,13.8804 -7.31957,1.0251 -8.54537,1.266 -11.08813,2.1784 -2.83432,1.017 -4.30299,0.9437 -5.87586,-0.2936 -0.84918,-0.6679 -0.92746,-0.9072 -0.74136,-2.2648 0.11442,-0.835 0.53669,-2.1623 0.93835,-2.9496 0.77679,-1.5226 0.66885,-2.0973 -0.28138,-1.4978 -0.73182,0.4616 -2.14901,2.9024 -2.16909,3.7357 -0.0274,1.1397 -1.06139,2.6787 -1.94926,2.9015 -1.62518,0.4079 -3.97176,-0.1743 -4.60633,-1.1428 -0.50604,-0.7722 -0.53049,-1.1928 -0.18617,-3.203 0.21801,-1.2727 0.87794,-3.2478 1.4665,-4.3889 0.58857,-1.1413 0.98768,-2.1574 0.88692,-2.2581 -0.10076,-0.1008 -0.70092,0.3185 -1.33368,0.9318 -1.10883,1.0748 -2.34119,3.748 -2.33761,5.071 0.003,1.1406 -1.83904,2.6017 -3.61628,2.8682 -2.40579,0.3608 -2.80873,-0.1061 -2.56541,-2.9724 0.10658,-1.2557 0.3074,-2.6618 0.44622,-3.1246 0.47992,-1.5999 -0.55074,-0.3978 -1.6454,1.919 -1.16055,2.4564 -1.39202,2.5091 -3.08146,0.703 -0.46626,-0.4986 -0.98067,-0.9063 -1.14314,-0.9063 -0.80965,0 0.981,3.7182 2.38263,4.9474 2.03001,1.7804 3.98826,2.3705 11.49752,3.4647 10.20242,1.4865 13.69123,3.0101 18.70811,8.1699 1.44244,1.4836 3.54535,3.3163 4.67316,4.0727 2.54114,1.7045 3.7463,1.7594 8.09192,0.3689 z m -40.6452,-33.0637 c 1.10984,-0.9712 2.83233,-2.7697 3.82776,-3.9966 1.63931,-2.0205 1.75378,-2.2718 1.2146,-2.666 -1.14916,-0.8403 -4.49546,-1.319 -6.54744,-0.9365 -2.59775,0.4841 -7.68969,2.4692 -7.92822,3.0908 -0.22581,0.5885 0.88614,1.8356 4.20002,4.7104 1.41847,1.2307 2.54834,1.9633 2.79748,1.8141 0.22985,-0.1376 1.32596,-1.0449 2.4358,-2.0162 z M 80.149653,331.77471 c 6.92248,-0.5897 11.18048,-1.5493 12.43305,-2.8018 0.46231,-0.4624 0.68011,-1.1605 0.68011,-2.1804 0,-0.825 0.27396,-3.3034 0.60879,-5.5074 0.85475,-5.6263 0.83322,-24.5029 -0.0458,-40.138 -0.63201,-11.2415 -0.63322,-11.8993 -0.0344,-18.6405 0.90163,-10.1507 0.41967,-20.7459 -1.18688,-26.0919 -0.83484,-2.7781 -2.52089,-4.0468 -6.85989,-5.1618 -1.34628,-0.346 -2.64432,-0.8071 -2.88452,-1.0248 -0.3392,-0.3073 -0.35574,-1.0568 -0.0741,-3.3558 0.19948,-1.6282 0.44176,-3.2224 0.53838,-3.5428 0.47046,-1.5598 -2.04158,-0.7298 -3.34927,1.1066 -0.42243,0.5933 -0.88475,1.9828 -1.051,3.1591 -0.16325,1.155 -0.58373,2.687 -0.93439,3.4047 -0.61992,1.2684 -0.70471,1.312 -3.06238,1.5724 -1.50814,0.1664 -2.55599,0.1365 -2.7718,-0.079 -0.45272,-0.4527 0.26403,-5.205 1.17667,-7.8016 0.3727,-1.0604 0.78101,-2.5744 0.90733,-3.3643 0.26238,-1.6409 -0.0751,-1.7941 -2.09377,-0.9506 -2.48835,1.0397 -3.1973,2.4785 -4.49881,9.1305 l -0.47893,2.4478 -1.96059,-0.01 c -2.17346,-0.01 -3.41624,-0.7603 -3.41624,-2.0672 0,-0.4082 0.39877,-1.9632 0.88616,-3.4554 0.48739,-1.4922 0.92012,-3.2976 0.96162,-4.0117 0.0707,-1.2168 0.0148,-1.2943 -0.89001,-1.2321 -1.86523,0.1282 -2.98534,1.3323 -3.78042,4.0636 -0.96787,3.3252 -2.04779,6.0794 -2.54507,6.4912 -0.52791,0.4371 -3.09273,-0.041 -4.23433,-0.7885 -1.10657,-0.725 -1.10559,-1.1041 0.0107,-4.1954 1.33263,-3.6903 1.14617,-5.4377 -0.51782,-4.8523 -1.66102,0.5842 -2.94409,2.8525 -3.34833,5.9194 -0.40017,3.0361 0.0191,2.8906 -9.45055,3.2783 -4.6138,0.1889 -8.73714,0.4213 -9.16298,0.5166 -0.9422,0.2107 -1.26173,1.2714 -2.05152,6.8101 -0.74333,5.213 -0.5443,27.0388 0.25358,27.8088 0.714,0.6891 8.44492,2.6209 8.86652,2.2156 0.208,-0.2 0.34968,-2.9148 0.34968,-6.7005 v -6.3642 l -1.32782,-2.6763 c -0.73029,-1.4719 -1.41886,-3.2372 -1.53013,-3.923 l -0.20233,-1.2467 4.80942,-2.3015 c 9.47651,-4.5348 15.6413,-6.843 19.66902,-7.3641 1.6281,-0.2107 1.83584,-0.1657 1.83584,0.3977 0,0.3493 -0.68424,1.5105 -1.52052,2.5802 -0.83629,1.0698 -1.68076,2.2598 -1.8766,2.6444 -0.67988,1.3354 -1.27394,6.888 -2.08264,19.4665 -0.47152,7.3338 1.37607,11.4829 5.81,13.0473 1.88684,0.6657 7.47038,0.7318 7.96816,0.094 0.74843,-0.9585 1.19921,-3.833 1.3857,-8.8361 0.1736,-4.6575 0.10945,-5.5872 -0.5671,-8.2175 -0.41957,-1.6312 -1.70865,-4.9117 -2.86462,-7.2901 l -2.10177,-4.3242 0.80959,-0.8715 c 3.55657,-3.8284 12.61226,-8.0139 18.77341,-8.6771 2.35869,-0.254 3.09319,0.1028 2.50919,1.2185 -0.48731,0.9311 -1.37805,7.3033 -1.78678,12.7824 -0.2175,2.9155 -0.33533,10.0599 -0.26529,16.0855 0.14473,12.4514 0.22764,12.8998 2.73495,14.7947 1.59527,1.2055 3.14209,3.3034 3.14536,4.2659 6.7e-4,0.29 -0.99458,1.5688 -2.21238,2.8418 -2.78146,2.9073 -3.81087,4.9836 -4.00865,8.085 -0.20167,3.1626 0.36991,4.8094 4.01492,11.5677 1.64269,3.0457 2.85081,5.6653 2.68473,5.8211 -0.1661,0.1558 -1.63953,0.624 -3.2743,1.0402 -4.07716,1.0382 -8.60983,2.8966 -12.19962,5.002 -1.6564,0.9714 -3.98209,2.2959 -5.1682,2.9434 -3.46235,1.89 -7.11007,2.7844 -7.11007,1.7434 0,-1.392 2.3915,-7.097 3.83546,-9.1495 0.52108,-0.7407 1.40557,-4.3249 1.77187,-7.1802 0.21055,-1.6413 0.41192,-7.4948 0.44748,-13.0079 0.0746,-11.5523 0.53967,-10.1498 -4.13154,-12.457 -8.53718,-4.2166 -11.86327,-0.6858 -10.49365,11.1396 0.30073,2.5964 0.69123,6.609 0.86778,8.9169 0.34879,4.5591 0.71813,5.7373 2.62985,8.3889 1.75497,2.4342 1.60685,3.4292 -0.69704,4.6821 -0.96162,0.5229 -2.45652,1.2039 -3.322,1.5131 -10.32794,3.6898 -19.36574,7.8952 -19.16849,8.9194 0.27951,1.4514 2.99355,2.1026 13.57355,3.257 8.9055,0.9715 24.30652,1.2999 31.64642,0.6747 z m -49.61944,-5.255 c 3.45275,-2.3755 5.84013,-6.4403 7.58458,-12.9137 2.07672,-7.7063 1.87796,-21.0708 -0.47699,-32.0715 -1.0794,-5.0422 -1.03024,-4.995 -5.19529,-4.995 h -3.45596 l -0.23853,1.7344 c -0.35843,2.606 0.0213,3.6996 1.79789,5.179 2.51738,2.0961 3.04454,3.2088 2.82586,5.9643 -0.12839,1.6177 -0.5128,2.9956 -1.25303,4.4917 -3.78816,7.6563 -4.92789,12.4407 -4.94212,20.7462 -0.007,4.0684 0.49957,11.1348 0.89613,12.5012 0.19619,0.676 0.76324,0.5292 2.45746,-0.6366 z m 199.406917,-0.3592 c 0.60566,-0.2112 1.10124,-0.599 1.10124,-0.8619 0,-1.5891 -7.78875,-12.3074 -16.11994,-22.1831 -5.26675,-6.2431 -7.59958,-8.455 -10.87967,-10.3157 -1.74397,-0.9893 -2.05855,-1.0473 -5.52103,-1.0195 -3.75231,0.03 -5.3991,0.4498 -11.53958,2.94 -0.86546,0.351 -2.83244,1.1444 -4.37104,1.7631 -4.09119,1.645 -7.75827,3.3743 -8.00623,3.7755 -0.35632,0.5766 0.48741,3.8106 1.24563,4.7744 0.89325,1.1357 2.37388,1.7526 4.91754,2.0492 4.79932,0.5596 6.97696,2.1094 12.92818,9.2003 1.4777,1.7606 3.2073,3.5943 3.84354,4.0749 2.39535,1.8089 12.07969,4.4269 21.43848,5.7954 3.06284,0.4478 9.68644,0.4524 10.96288,0.01 z m 53.82134,-3.658 c 2.50482,-2.2862 5.7143,-6.6602 7.05414,-9.6136 0.8537,-1.882 0.89362,-2.43 0.17695,-2.43 -0.72455,0 -4.59545,1.935 -5.97442,2.9865 -1.66341,1.2684 -3.48147,3.9589 -4.10941,6.0813 -0.69248,2.3406 -0.75419,5.2692 -0.11104,5.2692 0.248,0 1.58168,-1.032 2.96378,-2.2934 z m -151.54156,-17.7958 c 29.85358,-9.9781 36.81079,-12.27 43.74619,-14.4113 8.86172,-2.736 22.2488,-6.7047 25.17726,-7.4641 0.57698,-0.1496 1.95387,-0.525 3.05974,-0.8341 1.10587,-0.3091 2.91549,-0.8066 4.02137,-1.1053 3.15574,-0.8527 16.64333,-4.1881 20.89362,-5.167 12.43998,-2.8649 12.93741,-2.9758 20.80622,-4.6368 5.31637,-1.1222 8.55639,-1.7625 13.11316,-2.5914 0.96161,-0.1748 3.08595,-0.5678 4.72074,-0.8731 15.68739,-2.9299 30.58082,-4.4713 43.18597,-4.4693 11.88049,0 17.83589,0.8491 24.42955,3.4753 6.38322,2.5425 11.31188,5.7405 17.82765,11.5675 2.95407,2.6419 6.03362,4.9864 6.54965,4.9864 0.5026,0 0.27262,-5.4145 -0.57929,-13.6376 -1.35149,-13.0463 -1.53615,-15.6102 -1.53629,-21.3308 -7e-5,-4.0866 0.15855,-6.7002 0.47753,-7.8679 0.70969,-2.5977 2.92973,-8.2283 4.11921,-10.4476 0.6196,-1.1559 2.80446,-6.9607 3.504,-9.3095 0.37236,-1.2502 0.76379,-3.8466 0.86993,-5.7698 0.23113,-4.1894 -0.40418,-6.4316 -2.71092,-9.5674 -3.16793,-4.3067 -11.21121,-11.3837 -17.63291,-15.5145 -8.86668,-5.7036 -18.80312,-9.2205 -31.01746,-10.9783 -4.75217,-0.6839 -18.97422,-0.7722 -25.11682,-0.1561 -6.5495,0.6569 -13.3205,1.4427 -15.37614,1.7845 -1.05779,0.1758 -3.96891,0.649 -6.46914,1.0517 -4.14457,0.6674 -14.62586,2.6739 -18.14533,3.4736 -0.79036,0.1796 -2.45981,0.5584 -3.70995,0.8419 -7.89519,1.79 -10.98554,2.5484 -19.40746,4.7624 -8.04137,2.1138 -22.96944,6.3662 -28.84894,8.2178 -1.44245,0.4542 -4.43224,1.3804 -6.644,2.0582 -2.21176,0.6777 -6.61777,2.0391 -9.79116,3.0251 -3.17338,0.9861 -8.44486,2.5717 -11.71442,3.5237 -3.26954,0.9518 -6.21406,1.8129 -6.54337,1.9133 -0.38333,0.117 -1.16961,-0.3435 -2.18553,-1.2799 -1.85986,-1.7144 -2.09198,-1.2467 -0.41711,0.8404 0.64331,0.8017 1.28407,1.6576 1.4239,1.9021 0.3806,0.6653 -1.88315,1.4788 -4.11523,1.4788 -1.76519,0 -1.97374,-0.092 -3.07096,-1.3591 -0.64744,-0.7475 -1.6097,-2.0944 -2.13836,-2.9932 -1.26796,-2.1556 -1.85956,-1.7594 -0.90656,0.6073 1.43363,3.5603 1.50358,3.9727 0.84429,4.9789 -0.67144,1.0248 -2.48289,1.9133 -3.90069,1.9133 -2.4628,0 -5.27691,-2.9502 -5.62604,-5.8981 -0.25589,-2.1606 -0.65874,-2.893 -1.1797,-2.1447 -0.65559,0.9417 -0.16328,3.6536 1.00925,5.5591 1.54557,2.5119 1.46945,3.5534 -0.35797,4.8974 -1.97534,1.4526 -3.57864,1.7242 -5.15395,0.8731 -1.63901,-0.8855 -3.71951,-3.71 -4.48081,-6.0831 -0.83292,-2.5964 -0.84869,-9.6212 -0.0267,-11.8905 3.23068,-8.9184 11.03432,-12.7338 30.35637,-14.8421 10.57605,-1.1539 15.97101,-1.9642 16.89985,-2.5383 1.48424,-0.9173 -6.10718,-1.5898 -12.70364,-1.1253 -13.17117,0.9274 -25.58136,3.8635 -30.7635,7.2782 -5.83024,3.8418 -8.32092,11.5993 -6.44553,20.0754 0.89424,4.0417 2.78549,8.9829 3.64048,9.5112 0.19171,0.1186 0.34856,0.585 0.34856,1.0365 0,0.6984 -0.32643,0.9269 -2.18553,1.5297 -1.20204,0.3898 -5.09664,1.7272 -8.65468,2.9719 -3.55804,1.2448 -9.77368,3.3993 -13.81252,4.7879 -4.03886,1.3887 -7.57941,2.7462 -7.8679,3.0166 -0.83043,0.7786 -1.0104,5.1996 -1.35721,33.3396 -0.17659,14.3283 -0.48631,28.8052 -0.688267,32.171 -0.20194,3.3657 -0.44955,8.6765 -0.55023,11.8018 -0.16371,5.082 -0.12315,5.6824 0.38387,5.6824 0.311817,0 14.902537,-4.7915 32.423857,-10.6478 z m -1.17142,-9.022 c 0.0269,-1.8158 1.0622,-3.4565 3.02338,-4.7911 3.65092,-2.4845 3.9535,-4.2781 3.9535,-23.4364 0,-12.6025 -0.0661,-14.3938 -0.53741,-14.5747 -0.84283,-0.3234 -3.6934,1.653 -4.4247,3.0678 -1.21575,2.352 -1.76605,14.5799 -0.91961,20.4342 0.52501,3.6312 0.36002,4.0375 -3.18875,7.8534 l -2.75935,2.967 -2.22907,-1.1365 c -1.22599,-0.6251 -2.36224,-1.1365 -2.52501,-1.1365 -0.16276,0 -1.57276,0.9048 -3.13333,2.0107 -4.18019,2.9623 -4.52619,3.1078 -6.08441,2.5588 -1.88879,-0.6653 -3.57532,-2.0447 -4.13346,-3.3804 -0.3093,-0.7403 -0.4877,-2.4805 -0.4882,-4.7621 -2.6e-4,-1.9775 -0.22431,-5.8772 -0.49752,-8.6659 -0.42911,-4.3801 -0.76473,-12.2069 -0.6029,-14.06 0.0708,-0.8113 2.49313,-2.1738 5.76088,-3.2405 4.54416,-1.4834 4.22497,-1.9144 3.94256,5.3238 -0.36512,9.3582 0.43952,14.4037 2.61034,16.3682 0.64562,0.5844 0.71112,0.5818 1.42682,-0.054 1.15839,-1.0287 2.11079,-3.5161 2.42746,-6.3399 0.27771,-2.4763 0.16839,-4.4291 -0.76393,-13.6457 -0.2383,-2.3557 -0.3455,-4.3709 -0.23823,-4.4781 0.10726,-0.1073 2.3761,-1.1059 5.04185,-2.2191 7.38706,-3.085 8.02735,-3.4219 9.19583,-4.8384 1.45072,-1.7587 1.7531,-2.9487 2.11154,-8.3096 0.35848,-5.3613 0.7701,-7.2638 2.22409,-10.2798 1.97861,-4.1043 6.82165,-8.0198 10.68329,-8.6374 1.0019,-0.1602 2.46688,0.017 4.74324,0.5728 l 3.2936,0.8045 2.98785,-2.8283 c 3.29977,-3.1235 5.98259,-4.6342 8.22963,-4.6342 1.79542,0 4.28232,1.1556 5.96629,2.7725 l 1.30071,1.2488 -0.58936,2.9233 c -0.33564,1.6648 -0.80462,3.0373 -1.08937,3.1881 -0.275,0.1457 -1.43201,0.3559 -2.57113,0.4671 -3.2564,0.3181 -4.33918,1.9436 -4.3828,6.5793 -0.0207,2.1967 0.48883,2.5781 2.7862,2.0853 2.47438,-0.5306 3.29354,-0.4802 4.20664,0.2592 l 0.79124,0.6407 -1.01809,2.0567 c -0.72663,1.468 -1.61247,2.5357 -3.09433,3.7295 -1.14194,0.9199 -2.35623,2.1148 -2.69844,2.6553 -1.01075,1.5964 -1.31126,5.1898 -1.69326,20.2476 -0.19903,7.8455 -0.51126,15.13 -0.69384,16.1878 -0.96425,5.5864 -3.05899,9.244 -6.24832,10.9101 -1.62134,0.8471 -2.27267,0.9792 -4.82502,0.9792 h -2.95066 l 0.1057,-1.8059 c 0.0956,-1.6338 0.21137,-1.8586 1.21506,-2.3603 1.75215,-0.8758 2.77935,-2.8195 3.4957,-6.6145 0.55782,-2.9552 0.63842,-5.3504 0.63924,-18.9988 l 6.6e-4,-15.6172 -1.48446,-2.1524 -1.48446,-2.1523 0.8869,-1.5887 c 1.25336,-2.2451 1.90709,-5.066 1.90709,-8.2296 0,-2.0686 -0.11486,-2.724 -0.47737,-2.724 -0.66944,0 -2.3201,1.3558 -2.3201,1.9058 0,0.251 -0.24848,0.6625 -0.55218,0.9146 -0.45792,0.38 -0.93026,0.3574 -2.76745,-0.1321 -1.21839,-0.3247 -2.92291,-0.5903 -3.78779,-0.5903 -1.32668,0 -1.71405,0.1682 -2.47782,1.076 -0.82386,0.979 -0.9053,1.3526 -0.9053,4.1533 0,3.8691 0.0975,3.9664 3.52942,3.521 3.98126,-0.5169 5.91206,-0.4606 5.91206,0.1722 0,1.9622 -0.98716,3.6053 -3.88321,6.4637 -1.6564,1.6347 -3.22053,3.5083 -3.47583,4.1634 -0.5805,1.4897 -0.56274,11.6962 0.0387,22.245 0.68886,12.082 -0.29283,17.804 -3.743,21.8166 -2.09768,2.4396 -6.83693,4.2276 -11.20584,4.2276 -1.47318,0 -1.50894,-0.027 -1.49255,-1.1365 z m 90.90108,-22.8839 c 0,-0.1853 0.6507,-1.8196 1.44601,-3.6318 l 1.44601,-3.2948 0.0401,-21.6805 0.0401,-21.6804 -0.83009,-2.4006 c -1.25852,-3.6394 -0.97369,-4.2566 4.5135,-9.7812 l 4.48522,-4.5158 2.21002,0.1772 c 1.21548,0.097 4.06528,0.02 6.33289,-0.1724 3.76224,-0.3191 4.18333,-0.295 4.81378,0.2755 1.09855,0.9942 4.39081,8.063 5.44763,11.6966 0.8768,3.0145 0.96786,3.8559 0.98398,9.0918 0.0149,4.8534 -0.0878,6.0474 -0.64716,7.5181 -1.47911,3.889 -3.39572,5.2595 -10.77649,7.7056 -2.5156,0.8338 -4.82565,1.7675 -5.13344,2.0751 -0.46058,0.4603 -0.55961,1.4391 -0.55961,5.5302 0,6.5847 0.37241,7.8584 3.04128,10.4003 2.51961,2.3996 2.61951,3.2128 0.62909,5.119 -1.91423,1.8332 -6.44103,4.3942 -10.73419,6.0728 -3.64162,1.4237 -6.74872,2.1122 -6.74872,1.4953 z m 18.48297,-35.7611 c 1.73051,-1.1459 3.27947,-2.3212 3.4421,-2.6119 0.66647,-1.1909 -0.48485,-10.9328 -1.87259,-15.8447 -0.64309,-2.2762 -2.57844,-5.1616 -3.46214,-5.1616 -0.53424,0 -0.75992,0.5295 -1.2668,2.9723 -1.3922,6.7093 -1.71153,22.7295 -0.45308,22.7295 0.25632,0 1.88197,-0.9376 3.61251,-2.0836 z m -62.91771,32.069 c 0.60044,-1.0096 1.5953,-2.8587 2.2108,-4.1088 l 1.1191,-2.273 0.2654,-9.2665 c 0.14596,-5.0967 0.30714,-13.0433 0.35816,-17.6591 0.0904,-8.1806 0.0685,-8.4851 -0.8685,-12.0641 -0.52869,-2.0194 -0.96143,-3.9204 -0.96163,-4.2243 -2.1e-4,-0.304 0.6684,-1.0416 1.48579,-1.6392 2.0156,-1.4735 3.62872,-3.0239 5.60656,-5.3888 1.8938,-2.2644 3.95513,-3.7164 4.501,-3.1704 0.23706,0.237 0.22866,4.8798 -0.0256,14.1654 -0.20803,7.5971 -0.37822,17.9968 -0.37822,23.1104 v 9.2978 l 1.04904,2.8744 c 0.57698,1.5809 1.04906,2.9997 1.04906,3.1528 0,0.3319 -1.6758,1.3987 -5.24527,3.3392 -1.44245,0.7841 -3.78526,2.0704 -5.20627,2.8585 -1.42099,0.7881 -2.67986,1.4363 -2.79747,1.4406 -0.1176,0.01 -0.60723,0.3155 -1.08804,0.6916 -0.48082,0.3761 -1.16478,0.6873 -1.51991,0.6916 -0.57008,0.01 -0.51784,-0.2072 0.446,-1.8281 z m 26.55968,-5.2696 c -4.55981,-1.7061 -6.95872,-5.2512 -8.17806,-12.0855 -0.66146,-3.7075 -0.66029,-6.4565 0.005,-10.9716 1.36824,-9.2909 5.36791,-16.4785 10.59208,-19.0345 4.99004,-2.4414 11.36612,-0.2164 13.6478,4.7626 1.11844,2.4406 1.15558,4.5807 0.11674,6.7266 -1.67224,3.4544 -5.90151,6.3569 -11.56865,7.9394 -1.42735,0.3986 -2.72003,0.8496 -2.87263,1.0022 -0.39264,0.3926 0.32033,8.5974 0.96336,11.0862 0.671,2.5972 1.74617,4.7418 2.37722,4.7418 0.83262,0 2.60996,-2.374 4.00553,-5.3501 1.82914,-3.9007 2.44931,-4.6156 3.72631,-4.2951 0.55103,0.1383 1.52172,0.8026 2.1571,1.4764 0.9893,1.0489 1.15522,1.4756 1.15522,2.9704 0,3.6427 -3.50468,8.1852 -7.93998,10.2914 -2.41722,1.1477 -6.18591,1.4883 -8.18665,0.7398 z m 5.60966,-26.971 2.94586,-2.9425 -0.43575,-1.9471 c -0.49091,-2.1936 -1.10761,-2.9961 -2.3027,-2.9961 -0.94657,0 -2.39497,1.5672 -3.19013,3.4517 -0.7651,1.8133 -1.10658,7.3906 -0.45201,7.3826 0.26889,0 1.81451,-1.3302 3.43473,-2.9486 z m 81.92648,23.5486 c -2.30024,-0.6788 -5.89894,-5.5794 -5.0838,-6.923 0.18614,-0.3068 1.57702,-1.2014 3.09086,-1.9878 1.55647,-0.8088 3.25431,-2.0107 3.90756,-2.7664 3.87874,-4.487 5.70406,-13.5276 5.21234,-25.816 -0.32271,-8.0648 -0.25432,-7.8331 -2.61974,-8.879 -1.07719,-0.4762 -2.05948,-1.029 -2.1829,-1.2282 -0.12339,-0.1994 0.19132,-1.1675 0.69938,-2.1516 0.91231,-1.7669 0.92374,-1.8798 0.9245,-9.1324 0,-6.0787 0.10832,-7.6828 0.62514,-9.314 2.78895,-8.8029 11.3306,-10.075 19.13461,-2.8497 1.34443,1.2447 2.44442,2.5283 2.44442,2.8524 0,0.6414 -4.15087,4.9402 -4.77017,4.9402 -0.20918,0 -0.91305,-0.4697 -1.56417,-1.0437 -1.34278,-1.1838 -2.72578,-1.5276 -4.50586,-1.1205 l -1.2239,0.2799 0.12281,4.002 c 0.0676,2.201 0.25716,4.2536 0.42133,4.5612 0.25301,0.4742 0.83444,0.5337 3.81115,0.3904 3.29422,-0.1586 3.5126,-0.1272 3.5126,0.505 0,1.3434 -2.22764,4.4575 -4.02356,5.6248 -2.81644,1.8306 -2.68154,1.5529 -2.39268,4.9258 0.14278,1.667 0.26682,7.7518 0.27561,13.5216 0.0165,10.7374 -0.22541,13.3371 -1.7077,18.3583 -2.54038,8.6057 -9.06887,14.7375 -14.10783,13.2507 z m 26.77936,-1.6884 c -1.38882,-0.4458 -4.59724,-2.3406 -5.32504,-3.1448 -0.48419,-0.535 -0.57441,-0.9943 -0.38918,-1.9818 0.23864,-1.272 0.50169,-1.579 3.72702,-4.3502 2.51133,-2.1576 2.82049,-3.587 3.01881,-13.9564 0.19777,-10.3435 -0.11292,-12.8858 -2.09629,-17.1528 -0.22348,-0.4808 -0.64,-1.156 -0.92556,-1.5004 -0.46226,-0.5574 -0.4488,-0.7492 0.1228,-1.7484 0.35305,-0.6172 0.9326,-1.4456 1.28776,-1.8409 0.56817,-0.6321 0.66258,-1.5149 0.78527,-7.3433 0.20756,-9.8636 1.42129,-13.308 5.63659,-15.9963 4.07218,-2.5971 8.46687,-1.7107 12.74894,2.5714 1.69942,1.6995 4.21074,6.1665 4.21074,7.4901 0,1.2064 -4.17929,4.0307 -5.31786,3.5938 -0.25292,-0.097 -0.82093,-0.8994 -1.26222,-1.783 -1.35548,-2.7141 -3.34075,-3.7016 -3.72014,-1.8503 -0.37784,1.8436 -0.41469,7.9343 -0.0497,8.2206 0.21118,0.1657 1.80018,0.3905 3.53112,0.4997 7.13177,0.4495 12.14886,3.5622 13.44324,8.3403 0.4562,1.6841 0.36292,2.6324 -0.57961,5.8926 -0.85188,2.9467 -1.00625,3.0182 -3.62059,1.6757 -2.64493,-1.3582 -3.65954,-2.6922 -4.00319,-5.2638 -0.34131,-2.5541 -0.88435,-3.056 -3.30656,-3.056 -2.25053,0 -5.97726,0.6092 -6.4363,1.052 -0.16871,0.1627 -0.33287,6.4836 -0.36471,14.0464 -0.0469,11.1382 -0.16584,14.2821 -0.62612,16.5481 -1.55008,7.6319 -3.88162,11.021 -7.73196,11.239 -0.99587,0.057 -2.23662,-0.034 -2.75723,-0.2013 z m -58.91984,-17.4927 c -1.44804,-0.883 -2.00102,-2.0064 -2.67493,-5.4343 -1.12658,-5.7304 -1.64987,-23.0623 -0.76581,-25.364 0.23567,-0.6136 6.92322,-4.0324 9.27362,-4.741 0.86141,-0.2596 1.6944,-0.344 1.85108,-0.1872 0.15665,0.1566 0.029,2.3158 -0.28368,4.798 -0.78352,6.2199 -1.04237,14.1925 -0.53946,16.615 0.39642,1.9095 1.44345,4.2445 2.2443,5.0051 0.99074,0.9409 2.41371,1.6217 3.00042,1.4355 0.39958,-0.1268 0.87847,-0.9516 1.27984,-2.204 0.82414,-2.5718 0.81818,-9.0974 -0.0147,-16.0032 -0.88483,-7.3374 -1.05923,-6.8561 3.35697,-9.2648 2.04544,-1.1156 5.05262,-2.9068 6.68262,-3.9802 3.06717,-2.02 3.76058,-2.291 3.76058,-1.47 0,0.6823 -0.95148,2.8744 -1.89959,4.3762 -1.34056,2.1237 -1.59727,4.3768 -1.59727,14.0204 v 9.0528 l 2.27577,2.3324 c 1.25168,1.2829 2.3696,2.7064 2.48429,3.1634 0.28875,1.1504 -1.3137,3.786 -2.94354,4.8416 -1.79692,1.1636 -4.41202,1.5928 -9.50955,1.5606 -3.96965,-0.025 -4.67946,0.071 -7.72923,1.0526 -3.98509,1.2819 -6.59254,1.4068 -8.25185,0.3951 z m 95.47582,67.7024 c 5.54803,-3.2513 7.3855,-10.9681 4.30868,-18.0948 -0.70911,-1.6424 -3.26252,-4.8622 -3.85596,-4.8622 -0.34943,0 -0.51678,1.0976 -0.6797,4.4585 -0.33226,6.854 -1.33369,9.2554 -4.69912,11.2684 -1.03553,0.6194 -1.96014,1.0487 -2.0547,0.9541 -0.0946,-0.094 0.0199,-1.1009 0.25434,-2.2362 0.35046,-1.6967 0.33864,-2.3416 -0.0663,-3.6213 l -0.49274,-1.5569 -2.30583,0.025 c -1.80628,0.02 -2.54597,0.196 -3.41442,0.8143 -3.06997,2.186 -2.96153,7.0177 0.23735,10.5755 2.51494,2.7973 4.25821,3.4864 8.3579,3.3038 2.30829,-0.1028 3.17698,-0.3053 4.41053,-1.0282 z m -3.27046,-19.9207 c 0.22859,-1.9584 0.54568,-4.2533 0.70462,-5.0996 0.15893,-0.8464 0.21125,-1.7414 0.11623,-1.9889 -0.095,-0.2475 -2.55934,-1.9588 -5.47634,-3.8027 -2.91702,-1.844 -5.57147,-3.5399 -5.89882,-3.7686 -0.32735,-0.2288 -0.66011,-0.3428 -0.73951,-0.2534 -0.0794,0.089 -0.23338,4.3094 -0.34222,9.3778 l -0.19793,9.2154 0.93743,-0.1878 c 0.51558,-0.1033 1.68486,-0.3821 2.5984,-0.6196 1.68061,-0.4369 1.70621,-0.434 6.03206,0.6926 0.57698,0.1502 1.22935,0.2108 1.44976,0.1344 0.22609,-0.078 0.58172,-1.69 0.81632,-3.6996 z m -329.954097,0.023 c 1.59078,-2.4701 3.44021,-10.1091 2.641,-10.9082 -0.47647,-0.4765 -3.25552,1.0039 -4.82052,2.5679 -1.65665,1.6555 -2.4904,3.671 -2.49957,6.0424 -0.01,2.4682 0.51645,3.0847 2.63187,3.0847 1.21434,0 1.64782,-0.1666 2.04722,-0.7868 z m 86.580797,-108.5643 c 0,-2.3866 -0.52496,-3.6 -3.91997,-9.0617 -5.928347,-9.5372 -8.744777,-16.878 -10.648627,-27.7551 -0.96082,-5.4894 -0.86663,-19.2862 0.17786,-26.0514 0.41572,-2.6926 0.82442,-5.2103 0.90822,-5.595 0.0838,-0.3847 0.24355,-1.132 0.35496,-1.661 0.18974,-0.9007 0.31834,-0.9616 2.03174,-0.9612 2.31332,0 6.747377,0.7764 10.869877,1.9018 3.0627,0.8361 5.2109,1.5525 10.50553,3.5035 1.32643,0.4887 2.82991,0.8886 3.34104,0.8886 0.52876,0 2.26994,-0.8506 4.03951,-1.9732 4.42692,-2.8087 6.71436,-3.711 18.03155,-7.1131 2.29336,-0.6893 3.46311,-2.2686 5.57282,-7.523696 1.79171,-4.463 3.57527,-7.9055 4.35095,-8.3979 0.49794,-0.3161 1.21699,-0.3767 2.34845,-0.1977 3.70509,0.5861 4.52368,2.0976 4.84546,8.9474 0.23859,5.079196 0.42133,5.745796 2.08995,7.625296 1.00981,1.1375 3.6305,2.4 4.38265,2.1113 0.28271,-0.1085 0.51401,-0.2422 0.51401,-0.2972 0,-0.055 -0.25007,-1.3093 -0.55571,-2.7872 -0.83959,-4.0598 -0.44859,-4.0199 2.37751,0.2426 1.05544,1.5918 2.39942,3.7597 2.98662,4.8175 0.5872,1.0578 1.60894,2.8779 2.27053,4.0446 1.06851,1.8843 2.38269,4.5332 4.28085,8.6286 0.33355,0.7197 0.52548,1.5195 0.4265,1.7775 -0.099,0.2579 -1.02113,0.7379 -2.04919,1.0666 -2.14389,0.6854 -2.73213,1.0756 -3.57549,2.3716 -0.736,1.1311 -0.26082,1.5784 1.11544,1.05 2.27296,-0.8726 4.41453,-1.0622 6.6688,-0.5905 2.37512,0.4971 2.6386,0.7149 3.18546,2.6326 0.55132,1.9335 0.42462,2.7554 -0.66496,4.314 -1.70224,2.4348 -1.68672,2.8013 0.17905,4.2259 0.90131,0.6882 1.93864,1.2513 2.30518,1.2513 0.88699,0 2.39977,-0.8041 3.22195,-1.7126 0.82834,-0.9154 1.32464,-0.9263 2.12042,-0.047 0.93305,1.031 6.30993,3.5782 12.59872,5.9685 3.07722,1.1696 6.91684,2.6923 8.53248,3.3838 3.42445,1.4657 3.31646,1.518 4.6533,-2.2557 0.94346,-2.6633 2.05808,-4.033 3.1529,-3.8745 1.18986,0.1722 2.47938,4.2887 2.26101,7.2178 -0.18453,2.4751 0.20281,2.9729 1.56873,2.0162 0.50142,-0.3512 1.53238,-0.5557 2.80138,-0.5557 2.21328,0 2.48078,0.2286 2.90337,2.4812 0.21073,1.1233 0.11039,1.3525 -1.0302,2.354 -0.69499,0.6101 -1.45485,1.1051 -1.68855,1.0997 -0.23373,-0.01 -0.88391,-0.4774 -1.44486,-1.049 -0.56096,-0.5717 -1.22973,-1.0394 -1.48616,-1.0394 -1.30715,0 0.0313,1.7071 5.2093,6.644 3.12664,2.9811 8.76855,8.528 12.53762,12.3264 7.99821,8.0606 6.70963,7.5496 14.3793,5.7024 7.34332,-1.7686 11.28186,-2.499 19.86017,-3.6835 3.57705,-0.4939 11.18733,-1.006 20.77289,-1.3977 4.40518,-0.18 8.15058,-0.4684 8.32312,-0.641 0.77164,-0.7716 3.12844,-17.763 5.8634,-42.2716 0.19727,-1.7678 0.35867,-4.7213 0.35867,-6.5635 0,-3.8551 0.21133,-3.4023 -4.91206,-10.5269 -4.35996,-6.063 -6.2689,-9.2001 -8.86064,-14.5615 -2.95654,-6.115996 -4.83995,-11.708996 -6.33423,-18.810396 -0.77682,-3.6918 -1.32723,-4.6859 -3.23756,-5.8475 -9.42744,-5.7327 -31.25127,-10.8321 -60.23,-14.0735 -12.75486,-1.4267 -29.51558,-1.4132 -32.23342,0.026 -0.54176,0.2869 -0.60105,3.0389 -0.76941,35.7174 -0.10032,19.473696 -0.30825,36.506596 -0.46205,37.851096 -0.208,1.8181 -0.42335,2.4717 -0.84043,2.5509 -0.79883,0.1518 -5.42737,-4.8871 -7.80417,-8.496 -1.57146,-2.3862 -7.69945,-12.8441 -12.13362,-20.707 -3.00473,-5.3282 -8.92481,-13.515196 -12.51713,-17.310196 -5.41263,-5.7181 -8.70575,-5.9199 -11.74763,-0.7199 -0.70746,1.2094 -1.46238,2.1989 -1.67762,2.1989 -0.50508,0 -2.72567,-2.4117 -8.21022,-8.917 -8.32831,-9.8782 -12.1476,-14.1148 -14.91415,-16.5439 l -1.23025,-1.0802 -8.06326,2.7345 c -4.43478,1.504 -8.16174,2.833 -8.28212,2.9533 -0.7118,0.7119 4.45953,7.7763 17.15366,23.4333 2.90649,3.5849 7.20139,9.521996 7.11375,9.833796 -0.13157,0.468 -10.08492,7.1464 -10.66935,7.1587 -0.97816,0.021 -4.6212,-3.9477 -14.918,-16.250496 -4.02416,-4.8082 -8.032857,-9.5027 -8.908197,-10.4322 -0.87534,-0.9295 -1.71736,-1.913 -1.87117,-2.1855 -0.42823,-0.7588 -1.26243,-0.5892 -1.4332,0.2913 -0.0839,0.4327 -0.41661,2.203 -0.73928,3.9339 -0.32269,1.731 -0.71293,3.6193 -0.86723,4.1962 -0.1543,0.577 -0.54374,2.2293 -0.86543,3.6717 -0.32168,1.4425 -1.04595,4.544296 -1.60947,6.892996 -0.56352,2.3487 -1.02459,4.6577 -1.02459,5.1311 0,0.4733 0.55955,1.5938 1.24343,2.4897 0.68389,0.8959 1.40556,2.0488 1.60372,2.562 0.36777,0.9523 0.18,5.4772 -0.40874,9.85 -0.16831,1.25 -0.33964,3.9577 -0.38074,6.017 -0.0411,2.0594 -0.18651,3.9252 -0.32316,4.1463 -0.49208,0.7962 -1.75646,-0.1139 -4.91676,-3.5387 -1.76487,-1.9127 -3.4732,-3.4775 -3.79628,-3.4775 -0.52355,0 -0.63302,0.9602 -1.00657,8.8295 -0.23052,4.8562 -0.41647,10.1017 -0.41322,11.6567 0.01,4.724 1.40469,7.9065 5.87151,13.3967 1.60202,1.969 7.42975,8.8015 7.7859,9.1282 0.10482,0.096 2.57773,3.02 5.495347,6.4974 2.91761,3.4773 5.66473,6.4868 6.10468,6.6878 1.34165,0.6128 2.02383,-0.026 2.02383,-1.8954 z m 169.33453,-15.1325 c -1.27633,-0.7781 -1.41081,-1.6088 -0.79025,-4.8811 0.43738,-2.3063 0.0468,-3.1654 -1.43911,-3.1654 -0.74931,0 -1.34318,0.3132 -1.98885,1.049 -1.18168,1.3468 -1.92404,1.3249 -2.96821,-0.087 -1.09537,-1.4814 -1.34041,-2.2262 -1.07728,-3.2746 0.41522,-1.6544 3.49901,-2.4333 5.37881,-1.3587 1.7921,1.0244 2.09322,0.7571 1.87033,-1.661 -0.24168,-2.6213 0.26806,-4.7365 1.49196,-6.191 1.11971,-1.3307 1.59354,-1.3351 2.69606,-0.025 1.28337,1.5252 1.74839,3.2824 1.54364,5.8333 -0.0983,1.2245 -0.0425,2.3107 0.12394,2.4135 0.16646,0.1028 1.01947,-0.057 1.89553,-0.3537 2.33478,-0.7927 3.74636,-0.6983 4.6974,0.314 0.9592,1.021 0.79976,2.1224 -0.56649,3.9137 -1.07696,1.4119 -1.48239,1.4513 -2.87559,0.279 -0.77097,-0.6488 -1.38343,-0.8665 -2.21234,-0.7868 l -1.14622,0.1104 v 3.4503 3.4504 l -1.21402,0.8333 c -1.47428,1.0118 -1.95391,1.0311 -3.41931,0.1377 z m -30.24667,-1.7065 c -0.91299,-0.5059 -1.66044,-1.087 -1.66099,-1.2914 0,-0.2042 0.31372,-1.0228 0.69835,-1.8188 0.87489,-1.8109 0.87977,-2.5825 0.0231,-3.6282 l -0.6764,-0.8255 -1.50912,0.7878 c -2.06744,1.0791 -2.82586,0.9958 -4.09552,-0.4503 -2.26832,-2.5835 -1.00316,-4.5962 2.67631,-4.2579 1.10449,0.1016 2.36226,0.2961 2.79499,0.4323 0.76833,0.2418 0.78679,0.1857 0.78679,-2.393 0,-3.104 0.35229,-4.2052 1.83847,-5.7459 1.41854,-1.4707 2.21489,-1.4559 2.84526,0.053 0.70386,1.6847 1.31978,6.0092 1.05603,7.415 -0.1855,0.9888 -0.11863,1.1869 0.40068,1.1869 0.34283,0 0.87174,-0.2089 1.17539,-0.4642 0.30362,-0.2553 1.21988,-0.6547 2.03613,-0.8876 1.66857,-0.4761 2.60726,-0.1739 3.26235,1.0501 0.46745,0.8734 0.15465,3.4182 -0.5363,4.3632 -0.43597,0.5962 -0.59304,0.6139 -1.64666,0.1851 -1.89186,-0.7697 -4.02426,-1.2175 -4.65178,-0.9767 -0.49471,0.1898 -0.54719,0.5348 -0.34024,2.2364 0.13457,1.1066 0.4607,2.4368 0.72469,2.9562 0.70683,1.3906 0.62266,1.5931 -0.98446,2.3696 -1.81119,0.875 -2.14683,0.8515 -4.21693,-0.2958 z m -40.98298,-31.1468 c -0.95146,-0.5274 -1.79245,-1.1465 -1.86886,-1.3757 -0.0764,-0.2293 0.1948,-1.1268 0.60272,-1.9947 0.65648,-1.3965 0.69283,-1.7408 0.31646,-2.997 -0.23387,-0.7806 -0.60942,-1.4899 -0.83456,-1.5763 -0.22514,-0.086 -1.29498,0.2623 -2.37742,0.7748 -1.08244,0.5125 -2.17214,0.8535 -2.42156,0.7577 -0.64188,-0.2462 -2.22922,-2.6924 -2.49528,-3.8452 -0.17504,-0.7584 -0.0254,-1.1673 0.68842,-1.8811 0.81598,-0.816 1.0972,-0.8902 2.66946,-0.7039 0.96656,0.1145 2.29989,0.5282 2.96296,0.9194 0.66306,0.3913 1.35762,0.7114 1.54346,0.7114 0.2075,0 0.25178,-1.0457 0.11475,-2.7101 -0.29118,-3.5367 0.22501,-5.4332 1.94764,-7.1559 0.72819,-0.7282 1.4976,-1.324 1.70979,-1.324 0.21218,0 0.87462,0.9684 1.47208,2.1519 1.0307,2.0419 1.08029,2.3268 0.969,5.5682 -0.0645,1.8789 -0.0107,3.5229 0.11974,3.6533 0.13036,0.1303 0.67838,-0.1723 1.21783,-0.6725 1.6935,-1.5702 4.81796,-1.626 5.8834,-0.1048 0.94095,1.3433 0.65328,2.5968 -0.99673,4.3432 -1.73641,1.8378 -2.67452,1.8718 -2.67452,0.097 0,-1.2409 -0.46023,-1.507 -1.92326,-1.1122 -1.12552,0.3039 -1.70726,1.2179 -2.0629,3.2413 -0.17553,0.9987 -0.0399,1.521 0.66469,2.5592 0.85703,1.2629 0.89219,1.9557 0.0993,1.9557 -0.2109,0 -0.89923,0.3934 -1.52961,0.8742 -1.39522,1.0643 -1.61516,1.0553 -3.79696,-0.154 z m 26.65248,-0.061 -1.65346,-1.0814 0.23687,-2.6735 c 0.38107,-4.3014 0.36871,-4.4083 -0.52337,-4.5349 -0.54029,-0.076 -1.09883,0.2322 -1.73888,0.9615 -1.29949,1.481 -2.13224,1.3563 -3.55552,-0.5325 -1.31972,-1.7513 -1.54843,-3.3177 -0.61997,-4.2462 0.80615,-0.8062 3.57684,-0.6996 5.64943,0.2171 0.92086,0.4074 1.73096,0.7407 1.8002,0.7407 0.0692,0 0.10448,-1.4556 0.0783,-3.2346 -0.0391,-2.6498 0.0941,-3.562 0.73617,-5.0455 0.43111,-0.996 1.07029,-2.0702 1.42039,-2.387 0.59786,-0.541 0.72227,-0.4986 2.04565,0.697 1.83529,1.658 2.40761,4.0001 1.81247,7.4174 -0.21882,1.2567 -0.31112,2.3716 -0.20509,2.4776 0.10603,0.106 0.91291,-0.3244 1.79309,-0.9565 1.34125,-0.9632 1.8068,-1.1156 2.87612,-0.9422 3.00218,0.4873 4.11569,3.0427 2.44762,5.6171 -0.95826,1.479 -1.35947,1.5323 -2.86895,0.381 -0.62828,-0.4793 -1.63107,-0.9691 -2.22843,-1.0886 -0.99994,-0.2 -1.12935,-0.1136 -1.63179,1.0889 -0.61341,1.4681 -0.72657,3.865 -0.19791,4.1918 0.1913,0.1182 0.50677,0.512 0.70106,0.875 0.30278,0.5658 0.0855,0.8378 -1.52045,1.9038 -1.03056,0.684 -2.17216,1.2419 -2.53692,1.2396 -0.36476,0 -1.40722,-0.4908 -2.31662,-1.0856 z m 28.59218,0.1926 c -2.4573,-1.218 -2.48872,-1.2796 -1.64806,-3.2338 0.57976,-1.3477 0.68383,-2.053 0.48008,-3.2533 l -0.26014,-1.5327 -1.81652,-0.1053 c -1.69382,-0.098 -1.83164,-0.045 -2.04043,0.7868 -0.38424,1.5308 -2.17049,1.1383 -3.32568,-0.7308 -0.59798,-0.9676 -0.69811,-1.5096 -0.51031,-2.7619 0.25662,-1.7114 0.6559,-2.0525 2.8225,-2.4109 1.20524,-0.1994 1.63249,-0.081 2.97231,0.8272 0.86064,0.5831 1.67106,1.063 1.80093,1.0665 0.1299,0 0.20858,-1.5279 0.17486,-3.4031 -0.0623,-3.4637 0.34964,-4.9234 2.03088,-7.1961 0.60919,-0.8236 1.51446,-0.3818 2.87658,1.4036 0.90766,1.1897 0.97953,1.5253 1.02838,4.8035 0.0597,4.0084 -0.18101,3.8001 3.48814,3.0168 2.09636,-0.4475 3.26619,-0.1241 3.90777,1.0803 0.36706,0.6891 0.3326,1.1407 -0.20827,2.7274 -0.89523,2.6265 -1.3852,2.8498 -3.24716,1.4806 -0.82948,-0.61 -1.86652,-1.1092 -2.3045,-1.1092 -1.72354,0 -2.53952,4.1005 -1.16398,5.8492 0.38464,0.489 0.69935,1.0089 0.69935,1.1552 0,0.3212 -3.25049,2.4448 -3.70229,2.4186 -0.17548,-0.01 -1.09998,-0.4055 -2.05444,-0.8786 z m 28.31136,0.064 c -1.56217,-0.8965 -1.90369,-1.7194 -1.08776,-2.621 0.69912,-0.7726 0.78752,-1.535 0.43769,-3.7757 -0.17918,-1.1476 -0.48839,-1.8887 -0.8452,-2.0256 -0.31035,-0.1191 -1.53159,0.2611 -2.72376,0.848 -1.1886,0.5852 -2.38803,1.064 -2.66537,1.064 -0.74578,0 -1.68284,-2.2459 -1.68284,-4.0333 0,-3.0084 2.4006,-3.7996 5.93666,-1.9564 0.78553,0.4094 1.54858,0.7444 1.69569,0.7444 0.14713,0 0.26045,-1.3769 0.25185,-3.0597 -0.009,-1.8547 0.17834,-3.5418 0.47688,-4.2837 0.55056,-1.368 2.05084,-3.1471 2.65397,-3.1471 0.48445,0 2.02068,1.6152 2.66077,2.7974 0.32016,0.5915 0.4536,1.9772 0.4125,4.2837 -0.0481,2.6991 0.04,3.4094 0.42301,3.4094 0.26609,0 0.57362,-0.1453 0.68341,-0.323 0.34951,-0.5655 3.68906,-1.501 4.56954,-1.28 2.65302,0.6658 3.07335,4.2499 0.7283,6.2102 -1.05498,0.8819 -1.78824,0.7817 -3.0084,-0.411 -1.19874,-1.1718 -2.60172,-1.3697 -3.09947,-0.4371 -0.17963,0.3366 -0.43455,1.4785 -0.56652,2.5378 -0.20668,1.6592 -0.13587,2.0579 0.51189,2.8815 0.75815,0.9638 0.69946,1.6618 -0.13973,1.6618 -0.25031,0 -1.03479,0.3934 -1.74333,0.8742 -1.56964,1.0652 -2.08582,1.0707 -3.87978,0.041 z M 216.70131,99.408914 c -2.71646,-1.8417 -2.5604,-1.5655 -1.76166,-3.1182 1.22236,-2.3762 0.732,-5.7906 -0.82968,-5.7769 -0.40186,0 -1.42311,0.4756 -2.26944,1.0491 -1.65998,1.1247 -1.7738,1.1628 -2.3198,0.775 -1.05098,-0.7464 -1.91121,-2.3785 -1.91121,-3.6261 0,-1.7228 0.96387,-2.7503 2.57993,-2.7503 1.26586,0 3.52555,0.8103 3.88596,1.3934 0.12066,0.1953 0.49879,0.355 0.84029,0.355 0.55604,0 0.60413,-0.2897 0.46037,-2.7729 -0.0883,-1.5252 -0.0533,-3.3442 0.0776,-4.0422 0.22277,-1.1875 2.35399,-4.0251 3.02314,-4.0251 0.47721,0 1.72065,1.4763 2.35637,2.7975 0.43793,0.9102 0.57548,2.0611 0.53663,4.49 -0.051,3.1906 -0.0348,3.2609 0.69937,3.0361 3.28131,-1.0049 5.63319,-1.0649 6.70996,-0.1714 0.80051,0.6644 0.60121,2.3714 -0.45083,3.8618 -1.31522,1.8631 -1.92761,1.9853 -3.49075,0.6969 -1.59129,-1.3117 -2.67976,-1.371 -3.45485,-0.188 -0.69741,1.0643 -0.46909,4.1112 0.37823,5.0475 0.81978,0.9059 0.65436,1.3357 -0.79938,2.0774 -0.73409,0.3745 -1.54016,0.9284 -1.79124,1.231 -0.59498,0.716896 -0.99108,0.662396 -2.469,-0.3396 z m 30.53952,0.066 c -0.54517,-0.4558 -1.34526,-0.9395 -1.77798,-1.0749 -0.91546,-0.2866 -1.00149,-1.1063 -0.26445,-2.5195 0.60323,-1.1567 0.69277,-3.7096 0.16471,-4.6963 -0.54496,-1.0183 -1.75242,-0.817 -3.2858,0.5478 -0.75615,0.673 -1.4774,1.2236 -1.60274,1.2236 -0.12534,0 -0.81044,-0.5114 -1.52246,-1.1365 -1.11628,-0.98 -1.30314,-1.3612 -1.35692,-2.7683 -0.0516,-1.3502 0.0863,-1.7555 0.79919,-2.3487 1.09741,-0.9132 2.64175,-0.9266 4.70809,-0.041 2.51904,1.0797 2.50556,1.0933 2.3545,-2.3604 -0.1293,-2.9568 -0.0947,-3.1243 1.02956,-4.9783 0.63987,-1.0553 1.45399,-1.9747 1.80912,-2.0431 0.96086,-0.185 2.5407,1.5346 3.0364,3.3052 0.27265,0.9739 0.36437,2.5991 0.24498,4.3411 -0.10498,1.5315 -0.0877,2.7838 0.0383,2.7831 0.12604,-7e-4 1.0033,-0.3943 1.94945,-0.8743 1.97777,-1.0033 2.57739,-1.0589 4.18464,-0.3873 0.97913,0.4091 1.19865,0.7163 1.39666,1.9546 0.18442,1.1533 0.0817,1.7171 -0.47782,2.6224 -1.25703,2.0339 -1.49676,2.0862 -3.29023,0.7172 -1.66439,-1.2704 -2.90458,-1.548 -3.63842,-0.8141 -0.61414,0.6141 -0.51196,3.6511 0.17128,5.091 l 0.59088,1.2452 -1.08883,0.9057 c -0.59886,0.4982 -1.55958,1.1821 -2.13491,1.52 -1.02266,0.600496 -1.06824,0.595696 -2.03726,-0.2144 z m 28.53798,-0.073 c -0.24997,-0.3011 -0.89868,-0.7772 -1.44156,-1.058 -0.97198,-0.5026 -1.32876,-1.6388 -0.64692,-2.0602 0.69738,-0.4309 1.11771,-2.9632 0.70128,-4.225 -0.59001,-1.7877 -1.62298,-1.8854 -3.75358,-0.3547 -0.95836,0.6885 -1.91051,1.2519 -2.11589,1.2519 -0.20541,0 -0.87546,-1.0198 -1.48907,-2.2662 -1.07578,-2.1853 -1.09464,-2.2981 -0.52816,-3.1627 1.09162,-1.6661 1.75318,-1.7114 6.84524,-0.4689 0.42646,0.1041 0.56126,-0.4604 0.72103,-3.0192 0.21367,-3.4222 0.7976,-5.144 2.175,-6.4134 1.23298,-1.1363 1.93555,-0.863 3.00349,1.1682 0.79144,1.5051 0.92304,2.1981 0.94614,4.9806 0.0147,1.7778 0.0995,3.3049 0.18822,3.3937 0.0888,0.089 0.78481,-0.061 1.54676,-0.332 1.89428,-0.6747 4.36836,-0.6526 5.36858,0.048 0.68948,0.483 0.78804,0.7867 0.63223,1.9483 -0.17991,1.3415 -1.72128,4.1236 -2.28455,4.1236 -0.15496,0 -0.9252,-0.5508 -1.7116,-1.2239 -1.46228,-1.2516 -2.77462,-1.5513 -3.52169,-0.8043 -0.58991,0.59 -0.519,4.1023 0.10705,5.3028 0.28731,0.5508 0.52203,1.1802 0.52159,1.3987 0,0.4008 -3.68422,2.3436 -4.41487,2.3286 -0.21686,-0.01 -0.59879,-0.2546 -0.84872,-0.5558 z m -82.11816,76.689596 c 2.5245,-1.2398 6.53148,-5.2219 7.74183,-7.6938 0.9255,-1.89 1.96473,-6.367 1.56967,-6.7621 -0.39707,-0.3971 -0.8634,0.1908 -2.57161,3.2421 -4.76464,8.5108 -10.28272,10.388 -20.71752,7.0478 -4.77559,-1.5288 -5.93714,-2.3502 -9.44997,-6.683 -3.73656,-4.6087 -5.94906,-5.7262 -11.75415,-5.937 -3.35736,-0.1219 -4.10315,-0.2662 -5.86441,-1.134 -3.39825,-1.6745 -3.38289,-1.8998 0.34574,-5.07 5.3738,-4.569 6.86972,-6.6091 6.82884,-9.3131 -0.0304,-2.0101 -0.85378,-3.5725 -3.00426,-5.7012 -2.55072,-2.5247 -6.1814,-4.8604 -11.9951,-7.7168 -7.76037,-3.8128 -12.643,-5.226 -18.13207,-5.2482 -4.02211,-0.017 -11.88187,-0.9322 -13.01135,-1.5163 -0.5752,-0.2975 -2.1316,-1.6649 -3.4587,-3.0387 -3.23412,-3.3481 -5.58086,-5.0544 -8.13496,-5.9149 -2.689437,-0.9059 -4.239327,-0.9437 -4.256267,-0.1034 -0.007,0.3365 -0.16263,2.7362 -0.34632,5.3326 -0.84508,11.9454 1.65113,29.4136 5.421727,37.9408 1.65795,3.7494 2.23268,4.8391 3.87296,7.3434 3.04299,4.6458 6.74693,7.7353 11.18813,9.3322 2.64003,0.9493 3.10394,0.7192 2.85127,-1.4142 -0.49014,-4.1386 -2.30191,-7.3445 -6.27318,-11.1005 -2.93521,-2.7761 -3.92661,-4.1278 -4.641,-6.328 -0.55311,-1.7035 -0.55326,-1.9285 -0.003,-3.5874 0.68407,-2.0595 2.02267,-4.0937 5.87799,-8.9323 1.53244,-1.9232 3.48791,-4.559 4.34548,-5.8572 0.85758,-1.2982 1.67676,-2.3604 1.82039,-2.3604 0.67965,0 4.16554,2.8809 5.13254,4.2417 1.98745,2.7969 3.20735,7.1596 3.80069,13.5923 0.81272,8.8107 2.3131,12.983 6.00979,16.7119 3.46109,3.4911 8.46763,5.4354 16.37904,6.3607 3.048,0.3565 4.3945,0.3133 10.49053,-0.3364 7.85318,-0.837 10.80942,-0.6893 17.4842,0.8738 5.01727,1.1751 9.71681,1.0729 12.45229,-0.2704 z m -49.5188,-26.815 c -2.94962,-0.7212 -5.53592,-2.9418 -5.96459,-5.1211 -0.15257,-0.7757 0.0633,-1.4166 0.90149,-2.6767 1.96229,-2.95 7.79424,-5.2087 10.56483,-4.0918 1.95689,0.7888 3.3466,2.0648 4.27233,3.9225 1.55886,3.1282 0.93247,6.0289 -1.64071,7.5978 -0.91711,0.5592 -1.7201,0.6881 -4.11199,0.6603 -1.63477,-0.019 -3.44438,-0.1498 -4.02136,-0.291 z m 41.36923,11.4296 c 0.11753,-1.8276 0.44127,-2.1311 2.63217,-2.4682 2.20986,-0.34 4.42985,-1.5803 4.42985,-2.475 0,-0.8252 -2.78503,-4.5208 -4.86273,-6.4524 -0.6912,-0.6426 -3.69579,-3.3032 -6.67684,-5.9123 -7.4479,-6.5187 -8.6507,-7.7003 -12.67143,-12.4487 -3.73552,-4.4116 -5.30571,-5.6399 -9.97653,-7.8041 -5.2949,-2.4534 -12.53222,-4.9816 -14.33114,-5.0063 -1.31068,-0.018 0.47884,2.4597 3.4,4.7075 1.1429,0.8794 4.79907,3.3472 8.12481,5.4837 3.32575,2.1366 6.96799,4.5934 8.09387,5.4595 3.3028,2.5407 5.64697,6.1108 8.43543,12.8471 4.00635,9.6782 6.03917,12.5842 10.45219,14.9416 2.41062,1.2877 2.81918,1.1669 2.95035,-0.8724 z m 6.97811,-36.3062 c 0.77154,-16.0844 0.67099,-25.177796 -0.29753,-26.908996 -1.34464,-2.4036 -6.32012,-10.3222 -8.17543,-13.0112 -1.15968,-1.6809 -3.52472,-5.1163 -5.25566,-7.6342 -9.96148,-14.4907 -10.00608,-14.5376 -14.8043,-15.5546 -3.14469,-0.6665 -5.37603,-0.627 -10.54779,0.1865 -5.53264,0.8702 -6.73536,1.1551 -6.89476,1.6334 -0.0705,0.2115 0.61241,1.4663 1.51759,2.7885 10.27678,15.0102 15.90016,23.0456 26.8383,38.349696 11.594,16.2219 16.38457,22.4233 17.13196,22.1773 0.21818,-0.072 0.4376,-0.9837 0.48762,-2.0264 z"
     id="path895"
     inkscape:connector-curvature="0" />
  <path
     style="fill:none;stroke:#ff0000;stroke-width:1.2420119;stroke-miterlimit:4;stroke-dasharray:none;stroke-opacity:1"
     d="m 194.9461,0.62271429 c -5.90382,0.85890001 -9.43819,6.26430001 -13.88868,9.69139971 -6.84956,5.4012 -15.94701,6.9295 -24.45757,6.3333 -4.54852,0.028 -9.45543,-0.3614 -13.56852,1.9521 -1.8964,1.692 -2.66526,4.3394 -2.52172,6.8213 -26.58956,5.782 -52.765917,13.5352 -78.052477,23.5997 -3.16409,1.4676 -7.08104,3.511 -7.51342,7.3827 -0.36718,4.8265 3.79226,8.293 4.5036,12.8751 2.6591,11.4899 -4.02349,24.3623 -15.06277,28.624 -2.6653,1.1956 -5.73445,1.4445 -8.24387,2.926896 -2.83539,2.2576 -3.39471,6.3011 -2.47524,9.6245 3.09613,32.4423 9.70279,64.4089 15.865,96.3882 -4.57332,3.0222 -7.19986,8.0137 -10.86804,11.9238 -4.55962,2.3975 -9.83284,0.8182 -14.70306,1.3524 -2.66778,0.037 -5.3324,0.076 -7.98577,0.2232 -2.80057,6.6913 -0.33688,13.9491 0.39083,20.8186 0.24735,5.6058 -2.30499,11.1254 -0.9886,16.6763 0.18092,1.5394 0.39671,3.0745 0.59214,4.6121 -10.9580301,6.9112 -17.5595401,20.7618 -14.6621601,33.5984 1.95428,6.5948 8.55097,10.8358 15.1600401,11.7362 0.93654,2.699 0.84928,9.2646 0.74672,10.5059 v 152.2289 c 5.62605,0.1453 333.349917,0.037 344.627097,0 v -152.6699 c 7.02868,-5.2729 9.76765,-14.5642 9.73195,-23.0325 0.87363,-16.1073 -3.96474,-31.927 -3.67729,-48.0603 2.32394,-9.9391 8.98041,-18.6094 9.34396,-28.9889 0.62725,-7.3467 -1.93073,-14.9573 -7.04969,-20.3334 -8.00004,-9.9585 -18.78215,-17.3553 -30.48551,-22.362 1.78971,-22.3679 8.07964,-44.4146 6.7973,-66.9304 -1.46862,-4.7954 -6.45316,-6.9449 -9.54543,-10.524796 -6.23483,-6.2956 -9.29903,-15.63 -7.64981,-24.3781 0.96069,-6.8778 3.97103,-13.2354 5.69564,-19.8922 -0.91092,-1.8648 -2.92788,-2.82 -4.36883,-4.2249 -9.11432,-6.6994 -20.38739,-9.0491 -30.94296,-12.5117 -16.64442,-4.7748 -33.64379,-8.0758 -50.60243,-11.5457 0.67045,-3.7919 -2.19276,-7.9195 -6.18264,-8.0124 -5.65017,-0.8742 -11.50231,0.1648 -17.06812,-1.4819 -10.06206,-1.976 -19.05154,-7.4776997 -26.81946,-13.9767997 -1.2635,-0.61160001 -2.6584,-0.99980001 -4.07021,-0.96910001 z"
     id="path895-3"
     inkscape:connector-curvature="0"
     sodipodi:nodetypes="cccccccccccccccccccccccccccccccccccccccc" />
  <rect
     style="fill:none;fill-opacity:1;stroke:#ff0000;stroke-width:0.72000003;stroke-miterlimit:10;stroke-dasharray:none;stroke-opacity:1"
     id="rect821"
     width="347.71652"
     height="20.787401"
     x="86.438995"
     y="-512.89746"
     transform="rotate(90)" />
  <rect
     style="fill:none;fill-opacity:1;stroke:#ff0000;stroke-width:0.72000003;stroke-miterlimit:10;stroke-dasharray:none;stroke-opacity:1"
     id="rect821-3"
     width="423.3071"
     height="98.267715"
     x="48.643703"
     y="-551.63757"
     transform="rotate(90)" />
  <rect
     style="fill:none;fill-opacity:1;stroke:#ff0000;stroke-width:0.38232538;stroke-miterlimit:10;stroke-dasharray:none;stroke-opacity:1"
     id="rect821-3-7"
     width="423.64478"
     height="27.686357"
     x="48.306057"
     y="-447.3699"
     transform="rotate(90)" />
  <text
     xml:space="preserve"
     style="font-style:normal;font-weight:normal;font-size:40px;line-height:125%;font-family:sans-serif;letter-spacing:0px;word-spacing:0px;fill:#000000;fill-opacity:1;stroke:none;stroke-width:1px;stroke-linecap:butt;stroke-linejoin:miter;stroke-opacity:1"
     x="13.28691"
     y="507.4147"
     id="text4582"><tspan
       sodipodi:role="line"
       id="tspan4580"
       x="13.28691"
       y="507.4147"
       style="fill:#0000ff">use 5mm acryl</tspan></text>
  <rect
     style="fill:none;fill-opacity:1;stroke:#ff0000;stroke-width:0.38232538;stroke-miterlimit:10;stroke-dasharray:none;stroke-opacity:1"
     id="rect821-3-7-5"
     width="423.64478"
     height="27.686357"
     x="48.306057"
     y="-413.6835"
     transform="rotate(90)" />
  <rect
     style="fill:none;fill-opacity:1;stroke:#ff0000;stroke-width:0.72000003;stroke-miterlimit:10;stroke-dasharray:none;stroke-opacity:1"
     id="rect821-35"
     width="347.71652"
     height="20.787401"
     x="86.438995"
     y="-617.16516"
     transform="rotate(90)" />
  <rect
     style="fill:none;fill-opacity:1;stroke:#ff0000;stroke-width:0.72000003;stroke-miterlimit:10;stroke-dasharray:none;stroke-opacity:1"
     id="rect821-3-6"
     width="423.3071"
     height="98.267715"
     x="48.643703"
     y="-655.90527"
     transform="rotate(90)" />
  <rect
     style="fill:none;fill-opacity:1;stroke:#ff0000;stroke-width:0.72000003;stroke-miterlimit:10;stroke-dasharray:none;stroke-opacity:1"
     id="rect821-35-2"
     width="347.71652"
     height="20.787401"
     x="86.438995"
     y="-721.43286"
     transform="rotate(90)" />
  <rect
     style="fill:none;fill-opacity:1;stroke:#ff0000;stroke-width:0.72000003;stroke-miterlimit:10;stroke-dasharray:none;stroke-opacity:1"
     id="rect821-3-6-9"
     width="423.3071"
     height="98.267715"
     x="48.643703"
     y="-760.17297"
     transform="rotate(90)" />
  <rect
     style="fill:none;fill-opacity:1;stroke:#ff0000;stroke-width:0.72000003;stroke-miterlimit:10;stroke-dasharray:none;stroke-opacity:1"
     id="rect821-35-2-1"
     width="347.71652"
     height="20.787401"
     x="86.438995"
     y="-825.70056"
     transform="rotate(90)" />
  <rect
     style="fill:none;fill-opacity:1;stroke:#ff0000;stroke-width:0.72000003;stroke-miterlimit:10;stroke-dasharray:none;stroke-opacity:1"
     id="rect821-3-6-9-2"
     width="423.3071"
     height="98.267715"
     x="48.643703"
     y="-864.44067"
     transform="rotate(90)" />
  <rect
     style="fill:none;fill-opacity:1;stroke:#ff0000;stroke-width:0.72000003;stroke-miterlimit:10;stroke-dasharray:none;stroke-opacity:1"
     id="rect821-35-2-1-9"
     width="347.71652"
     height="20.787401"
     x="86.438995"
     y="-929.9682"
     transform="rotate(90)" />
  <rect
     style="fill:none;fill-opacity:1;stroke:#ff0000;stroke-width:0.72000003;stroke-miterlimit:10;stroke-dasharray:none;stroke-opacity:1"
     id="rect821-3-6-9-2-3"
     width="423.3071"
     height="98.267715"
     x="48.643703"
     y="-968.70844"
     transform="rotate(90)" />
  <rect
     style="fill:none;fill-opacity:1;stroke:#ff0000;stroke-width:0.72000003;stroke-miterlimit:10;stroke-dasharray:none;stroke-opacity:1"
     id="rect821-3-6-9-2-0"
     width="423.3071"
     height="98.267715"
     x="48.643703"
     y="-1072.9762"
     transform="rotate(90)" />
  <rect
     style="fill:none;fill-opacity:1;stroke:#ff0000;stroke-width:0.38232538;stroke-miterlimit:10;stroke-dasharray:none;stroke-opacity:1"
     id="rect821-3-7-6"
     width="423.64478"
     height="27.686357"
     x="-809.64191"
     y="-42.306057"
     transform="scale(-1)" />
  <rect
     style="fill:none;fill-opacity:1;stroke:#ff0000;stroke-width:0.38232538;stroke-miterlimit:10;stroke-dasharray:none;stroke-opacity:1"
     id="rect821-3-7-5-2"
     width="423.64478"
     height="27.686357"
     x="-472.28848"
     y="1078.9762"
     transform="rotate(-90)" />
  <text
     xml:space="preserve"
     style="font-style:normal;font-weight:normal;font-size:40px;line-height:125%;font-family:sans-serif;letter-spacing:0px;word-spacing:0px;fill:#000000;fill-opacity:1;stroke:none;stroke-width:1px;stroke-linecap:butt;stroke-linejoin:miter;stroke-opacity:1"
     x="-408.10797"
     y="1030.6722"
     id="text4582-6"
     transform="rotate(-90)"><tspan
       sodipodi:role="line"
       id="tspan4580-1"
       x="-408.10797"
       y="1030.6722"
       style="fill:#0000ff">bottom plate</tspan></text>
  <text
     xml:space="preserve"
     style="font-style:normal;font-weight:normal;font-size:40px;line-height:125%;font-family:sans-serif;letter-spacing:0px;word-spacing:0px;fill:#000000;fill-opacity:1;stroke:none;stroke-width:1px;stroke-linecap:butt;stroke-linejoin:miter;stroke-opacity:1"
     x="456.25153"
     y="507.34851"
     id="text4582-8"><tspan
       sodipodi:role="line"
       id="tspan4580-7"
       x="456.25153"
       y="507.34851"
       style="fill:#0000ff">--------  receptacles  --------</tspan></text>
  <text
     xml:space="preserve"
     style="font-style:normal;font-weight:normal;font-size:40px;line-height:125%;font-family:sans-serif;letter-spacing:0px;word-spacing:0px;fill:#000000;fill-opacity:1;stroke:none;stroke-width:1px;stroke-linecap:butt;stroke-linejoin:miter;stroke-opacity:1"
     x="809.64191"
     y="14.619699"
     id="text4762"><tspan
       sodipodi:role="line"
       id="tspan4760"
       x="809.64191"
       y="50.010323"></tspan></text>
  <text
     xml:space="preserve"
     style="font-style:normal;font-weight:normal;font-size:40px;line-height:125%;font-family:sans-serif;letter-spacing:0px;word-spacing:0px;fill:#000000;fill-opacity:1;stroke:none;stroke-width:1px;stroke-linecap:butt;stroke-linejoin:miter;stroke-opacity:1"
     x="820.15912"
     y="35.159416"
     id="text4582-9"><tspan
       sodipodi:role="line"
       id="tspan4580-2"
       x="820.15912"
       y="35.159416"
       style="fill:#0000ff">spacer</tspan></text>
</svg>
